<mxfile host="app.diagrams.net" modified="2024-02-16T20:41:29.207Z" agent="Mozilla/5.0 (Windows NT 10.0; Win64; x64; rv:122.0) Gecko/20100101 Firefox/122.0" etag="sBIFQVSsg_Q3muNMkMl9" version="23.1.5" type="device">
  <diagram name="Seite-1" id="8tDt1EbK0RSfSX73fOp0">
    <mxGraphModel dx="1243" dy="463" grid="1" gridSize="10" guides="1" tooltips="1" connect="1" arrows="1" fold="1" page="1" pageScale="1" pageWidth="827" pageHeight="1169" math="0" shadow="0">
      <root>
        <mxCell id="0" />
        <mxCell id="1" parent="0" />
        <mxCell id="sgFe3bj_fbjyuD9QRjPH-41" value="" style="shape=hexagon;perimeter=hexagonPerimeter2;whiteSpace=wrap;html=1;fixedSize=1;fillColor=#f8cecc;strokeColor=#b85450;" vertex="1" parent="1">
          <mxGeometry x="588.5" y="195" width="102" height="40" as="geometry" />
        </mxCell>
        <mxCell id="sgFe3bj_fbjyuD9QRjPH-4" value="" style="rounded=1;whiteSpace=wrap;html=1;fillColor=#d5e8d4;strokeColor=#82b366;" vertex="1" parent="1">
          <mxGeometry x="200" y="390" width="120" height="40" as="geometry" />
        </mxCell>
        <mxCell id="sgFe3bj_fbjyuD9QRjPH-5" value="" style="rounded=1;whiteSpace=wrap;html=1;fillColor=#EEEEEE;strokeColor=#36393d;" vertex="1" parent="1">
          <mxGeometry x="360" y="390" width="160" height="40" as="geometry" />
        </mxCell>
        <mxCell id="sgFe3bj_fbjyuD9QRjPH-3" value="main" style="text;html=1;align=center;verticalAlign=middle;whiteSpace=wrap;rounded=0;" vertex="1" parent="1">
          <mxGeometry x="410" y="395" width="60" height="30" as="geometry" />
        </mxCell>
        <mxCell id="sgFe3bj_fbjyuD9QRjPH-6" value="&lt;font color=&quot;#82b366&quot;&gt;Commit&lt;/font&gt;" style="text;html=1;align=center;verticalAlign=middle;whiteSpace=wrap;rounded=0;" vertex="1" parent="1">
          <mxGeometry x="230" y="395" width="60" height="30" as="geometry" />
        </mxCell>
        <mxCell id="sgFe3bj_fbjyuD9QRjPH-7" value="" style="endArrow=classic;html=1;rounded=0;exitX=1;exitY=0.5;exitDx=0;exitDy=0;entryX=0;entryY=0.5;entryDx=0;entryDy=0;fillColor=#d5e8d4;strokeColor=#82b366;" edge="1" parent="1" source="sgFe3bj_fbjyuD9QRjPH-4" target="sgFe3bj_fbjyuD9QRjPH-5">
          <mxGeometry width="50" height="50" relative="1" as="geometry">
            <mxPoint x="330" y="520" as="sourcePoint" />
            <mxPoint x="380" y="470" as="targetPoint" />
          </mxGeometry>
        </mxCell>
        <mxCell id="sgFe3bj_fbjyuD9QRjPH-9" value="Draft" style="swimlane;whiteSpace=wrap;html=1;fillColor=#f5f5f5;strokeColor=#666666;fontColor=#333333;" vertex="1" parent="1">
          <mxGeometry x="380" y="100" width="120" height="60" as="geometry" />
        </mxCell>
        <mxCell id="sgFe3bj_fbjyuD9QRjPH-10" value="Changelog" style="text;html=1;align=center;verticalAlign=middle;whiteSpace=wrap;rounded=0;" vertex="1" parent="sgFe3bj_fbjyuD9QRjPH-9">
          <mxGeometry x="15" y="25" width="90" height="30" as="geometry" />
        </mxCell>
        <mxCell id="sgFe3bj_fbjyuD9QRjPH-13" value="" style="shape=process;whiteSpace=wrap;html=1;backgroundOutline=1;fillColor=#eeeeee;strokeColor=#36393d;" vertex="1" parent="1">
          <mxGeometry x="400" y="290" width="80" height="40" as="geometry" />
        </mxCell>
        <mxCell id="sgFe3bj_fbjyuD9QRjPH-14" value="Build" style="text;html=1;align=center;verticalAlign=middle;whiteSpace=wrap;rounded=0;" vertex="1" parent="1">
          <mxGeometry x="410" y="295" width="60" height="30" as="geometry" />
        </mxCell>
        <mxCell id="sgFe3bj_fbjyuD9QRjPH-15" value="" style="endArrow=classic;html=1;rounded=0;exitX=0.25;exitY=0;exitDx=0;exitDy=0;entryX=0.25;entryY=1;entryDx=0;entryDy=0;fillColor=#d5e8d4;strokeColor=#82b366;" edge="1" parent="1" source="sgFe3bj_fbjyuD9QRjPH-5" target="sgFe3bj_fbjyuD9QRjPH-13">
          <mxGeometry width="50" height="50" relative="1" as="geometry">
            <mxPoint x="380.60000000000014" y="361" as="sourcePoint" />
            <mxPoint x="380.0000000000001" y="325" as="targetPoint" />
          </mxGeometry>
        </mxCell>
        <mxCell id="sgFe3bj_fbjyuD9QRjPH-16" value="" style="endArrow=classic;html=1;rounded=0;exitX=0.5;exitY=1;exitDx=0;exitDy=0;entryX=0.5;entryY=0;entryDx=0;entryDy=0;fillColor=#f5f5f5;strokeColor=#666666;dashed=1;labelBackgroundColor=none;" edge="1" parent="1" source="sgFe3bj_fbjyuD9QRjPH-13" target="sgFe3bj_fbjyuD9QRjPH-5">
          <mxGeometry width="50" height="50" relative="1" as="geometry">
            <mxPoint x="550" y="360" as="sourcePoint" />
            <mxPoint x="600" y="310" as="targetPoint" />
          </mxGeometry>
        </mxCell>
        <mxCell id="sgFe3bj_fbjyuD9QRjPH-18" value="&lt;span style=&quot;&quot;&gt;Status&lt;/span&gt;" style="edgeLabel;html=1;align=center;verticalAlign=middle;resizable=0;points=[];fontColor=#666666;labelBackgroundColor=#EEEEEE;" vertex="1" connectable="0" parent="sgFe3bj_fbjyuD9QRjPH-16">
          <mxGeometry x="-0.1637" y="-1" relative="1" as="geometry">
            <mxPoint x="1" as="offset" />
          </mxGeometry>
        </mxCell>
        <mxCell id="sgFe3bj_fbjyuD9QRjPH-19" value="" style="endArrow=classic;html=1;rounded=0;exitX=0.75;exitY=0;exitDx=0;exitDy=0;entryX=0.5;entryY=1;entryDx=0;entryDy=0;fillColor=#d5e8d4;strokeColor=#82B366;" edge="1" parent="1" source="sgFe3bj_fbjyuD9QRjPH-13" target="sgFe3bj_fbjyuD9QRjPH-50">
          <mxGeometry width="50" height="50" relative="1" as="geometry">
            <mxPoint x="420" y="290" as="sourcePoint" />
            <mxPoint x="420" y="190" as="targetPoint" />
          </mxGeometry>
        </mxCell>
        <mxCell id="sgFe3bj_fbjyuD9QRjPH-20" value="vX.Y.Z" style="swimlane;whiteSpace=wrap;html=1;fillColor=#e1d5e7;strokeColor=#9673a6;" vertex="1" parent="1">
          <mxGeometry x="580" y="100" width="120" height="60" as="geometry" />
        </mxCell>
        <mxCell id="sgFe3bj_fbjyuD9QRjPH-21" value="Final Changelog (Markup)" style="text;html=1;align=center;verticalAlign=middle;whiteSpace=wrap;rounded=0;fontColor=#9673A6;" vertex="1" parent="sgFe3bj_fbjyuD9QRjPH-20">
          <mxGeometry x="8.5" y="25" width="105" height="30" as="geometry" />
        </mxCell>
        <mxCell id="sgFe3bj_fbjyuD9QRjPH-22" value="" style="endArrow=classic;html=1;rounded=0;exitX=1;exitY=0.5;exitDx=0;exitDy=0;entryX=0;entryY=0.5;entryDx=0;entryDy=0;fillColor=#e1d5e7;strokeColor=#9673A6;dashed=1;dashPattern=1 4;labelBackgroundColor=none;" edge="1" parent="1" source="sgFe3bj_fbjyuD9QRjPH-9" target="sgFe3bj_fbjyuD9QRjPH-20">
          <mxGeometry width="50" height="50" relative="1" as="geometry">
            <mxPoint x="530" y="110" as="sourcePoint" />
            <mxPoint x="580" y="60" as="targetPoint" />
          </mxGeometry>
        </mxCell>
        <mxCell id="sgFe3bj_fbjyuD9QRjPH-23" value="&lt;span style=&quot;&quot;&gt;Adjust final Version and&amp;nbsp; changelog&lt;/span&gt;" style="edgeLabel;html=1;align=center;verticalAlign=middle;resizable=0;points=[];fontColor=#9673A6;labelBackgroundColor=#EEEEEE;" vertex="1" connectable="0" parent="sgFe3bj_fbjyuD9QRjPH-22">
          <mxGeometry x="-0.0841" relative="1" as="geometry">
            <mxPoint x="92" y="-40" as="offset" />
          </mxGeometry>
        </mxCell>
        <mxCell id="sgFe3bj_fbjyuD9QRjPH-58" value="&lt;font color=&quot;#9673a6&quot; style=&quot;&quot;&gt;Manual&lt;/font&gt;" style="edgeLabel;html=1;align=center;verticalAlign=middle;resizable=0;points=[];fontColor=#E1D5E7;labelBackgroundColor=#EEEEEE;" vertex="1" connectable="0" parent="sgFe3bj_fbjyuD9QRjPH-22">
          <mxGeometry x="-0.2837" y="1" relative="1" as="geometry">
            <mxPoint x="8" y="11" as="offset" />
          </mxGeometry>
        </mxCell>
        <mxCell id="sgFe3bj_fbjyuD9QRjPH-27" value="" style="shape=process;whiteSpace=wrap;html=1;backgroundOutline=1;fillColor=#f8cecc;strokeColor=#b85450;" vertex="1" parent="1">
          <mxGeometry x="355" y="210" width="80" height="40" as="geometry" />
        </mxCell>
        <mxCell id="sgFe3bj_fbjyuD9QRjPH-28" value="Release Draft" style="text;html=1;align=center;verticalAlign=middle;whiteSpace=wrap;rounded=0;fontColor=#B85450;" vertex="1" parent="1">
          <mxGeometry x="365" y="215" width="60" height="30" as="geometry" />
        </mxCell>
        <mxCell id="sgFe3bj_fbjyuD9QRjPH-29" value="" style="shape=process;whiteSpace=wrap;html=1;backgroundOutline=1;fillColor=#f8cecc;strokeColor=#b85450;" vertex="1" parent="1">
          <mxGeometry x="587.5" y="290" width="105" height="40" as="geometry" />
        </mxCell>
        <mxCell id="sgFe3bj_fbjyuD9QRjPH-30" value="&lt;font color=&quot;#b85450&quot;&gt;Create Release (PR)&lt;/font&gt;" style="text;html=1;align=center;verticalAlign=middle;whiteSpace=wrap;rounded=0;" vertex="1" parent="1">
          <mxGeometry x="602.5" y="295" width="75" height="30" as="geometry" />
        </mxCell>
        <mxCell id="sgFe3bj_fbjyuD9QRjPH-31" value="" style="endArrow=classic;html=1;rounded=0;exitX=0.75;exitY=0;exitDx=0;exitDy=0;entryX=0.75;entryY=1;entryDx=0;entryDy=0;fillColor=#f8cecc;strokeColor=#b85450;" edge="1" parent="1" source="sgFe3bj_fbjyuD9QRjPH-5" target="sgFe3bj_fbjyuD9QRjPH-13">
          <mxGeometry width="50" height="50" relative="1" as="geometry">
            <mxPoint x="540" y="370" as="sourcePoint" />
            <mxPoint x="590" y="320" as="targetPoint" />
          </mxGeometry>
        </mxCell>
        <mxCell id="sgFe3bj_fbjyuD9QRjPH-32" value="" style="rounded=1;whiteSpace=wrap;html=1;fillColor=#f8cecc;strokeColor=#b85450;" vertex="1" parent="1">
          <mxGeometry x="580" y="390" width="120" height="40" as="geometry" />
        </mxCell>
        <mxCell id="sgFe3bj_fbjyuD9QRjPH-33" value="&lt;font color=&quot;#b85450&quot;&gt;Merge (vX.Y.Z)&lt;/font&gt;" style="text;html=1;align=center;verticalAlign=middle;whiteSpace=wrap;rounded=0;" vertex="1" parent="1">
          <mxGeometry x="610" y="395" width="60" height="30" as="geometry" />
        </mxCell>
        <mxCell id="sgFe3bj_fbjyuD9QRjPH-34" value="" style="endArrow=classic;html=1;rounded=0;exitX=0;exitY=0.5;exitDx=0;exitDy=0;entryX=1;entryY=0.5;entryDx=0;entryDy=0;fillColor=#f8cecc;strokeColor=#b85450;" edge="1" parent="1" source="sgFe3bj_fbjyuD9QRjPH-32" target="sgFe3bj_fbjyuD9QRjPH-5">
          <mxGeometry width="50" height="50" relative="1" as="geometry">
            <mxPoint x="560" y="390" as="sourcePoint" />
            <mxPoint x="540" y="350" as="targetPoint" />
          </mxGeometry>
        </mxCell>
        <mxCell id="sgFe3bj_fbjyuD9QRjPH-36" value="" style="endArrow=classic;html=1;rounded=0;exitX=0.5;exitY=1;exitDx=0;exitDy=0;entryX=0.5;entryY=0;entryDx=0;entryDy=0;fillColor=#f8cecc;strokeColor=#B85450;" edge="1" parent="1" source="sgFe3bj_fbjyuD9QRjPH-29" target="sgFe3bj_fbjyuD9QRjPH-32">
          <mxGeometry width="50" height="50" relative="1" as="geometry">
            <mxPoint x="750" y="365" as="sourcePoint" />
            <mxPoint x="730" y="325" as="targetPoint" />
          </mxGeometry>
        </mxCell>
        <mxCell id="sgFe3bj_fbjyuD9QRjPH-38" value="" style="endArrow=classic;html=1;rounded=0;exitX=0.5;exitY=1;exitDx=0;exitDy=0;entryX=0.5;entryY=0;entryDx=0;entryDy=0;fillColor=#f8cecc;strokeColor=#b85450;" edge="1" parent="1" source="sgFe3bj_fbjyuD9QRjPH-41" target="sgFe3bj_fbjyuD9QRjPH-29">
          <mxGeometry width="50" height="50" relative="1" as="geometry">
            <mxPoint x="637.75" y="225" as="sourcePoint" />
            <mxPoint x="639.25" y="295" as="targetPoint" />
          </mxGeometry>
        </mxCell>
        <mxCell id="sgFe3bj_fbjyuD9QRjPH-42" value="&lt;div&gt;&lt;span style=&quot;&quot;&gt;Bump Version and Changelog&amp;nbsp;&lt;/span&gt;&lt;/div&gt;&lt;div&gt;&lt;span style=&quot;&quot;&gt;defined in draft&lt;/span&gt;&lt;/div&gt;" style="edgeLabel;html=1;align=center;verticalAlign=middle;resizable=0;points=[];fontColor=#B85450;labelBackgroundColor=#EEEEEE;" vertex="1" connectable="0" parent="sgFe3bj_fbjyuD9QRjPH-38">
          <mxGeometry x="-0.2043" y="1" relative="1" as="geometry">
            <mxPoint y="2" as="offset" />
          </mxGeometry>
        </mxCell>
        <mxCell id="sgFe3bj_fbjyuD9QRjPH-40" value="&lt;font color=&quot;#b85450&quot;&gt;Manual trigger&lt;/font&gt;" style="text;html=1;align=center;verticalAlign=middle;whiteSpace=wrap;rounded=0;" vertex="1" parent="1">
          <mxGeometry x="610.5" y="200" width="60" height="30" as="geometry" />
        </mxCell>
        <mxCell id="sgFe3bj_fbjyuD9QRjPH-43" value="" style="rounded=1;whiteSpace=wrap;html=1;fillColor=#EEEEEE;fontColor=#333333;strokeColor=#666666;" vertex="1" parent="1">
          <mxGeometry x="200" y="290" width="120" height="40" as="geometry" />
        </mxCell>
        <mxCell id="sgFe3bj_fbjyuD9QRjPH-44" value="Any PR" style="text;html=1;align=center;verticalAlign=middle;whiteSpace=wrap;rounded=0;" vertex="1" parent="1">
          <mxGeometry x="230" y="295" width="60" height="30" as="geometry" />
        </mxCell>
        <mxCell id="sgFe3bj_fbjyuD9QRjPH-45" value="" style="endArrow=classic;html=1;rounded=0;exitX=1;exitY=0.5;exitDx=0;exitDy=0;entryX=0;entryY=0.5;entryDx=0;entryDy=0;fillColor=#f5f5f5;strokeColor=#666666;" edge="1" parent="1">
          <mxGeometry width="50" height="50" relative="1" as="geometry">
            <mxPoint x="320" y="300" as="sourcePoint" />
            <mxPoint x="400" y="300.2" as="targetPoint" />
          </mxGeometry>
        </mxCell>
        <mxCell id="sgFe3bj_fbjyuD9QRjPH-46" value="" style="endArrow=classic;html=1;rounded=0;exitX=0;exitY=0.75;exitDx=0;exitDy=0;entryX=1;entryY=0.75;entryDx=0;entryDy=0;fillColor=#f5f5f5;strokeColor=#666666;dashed=1;" edge="1" parent="1" source="sgFe3bj_fbjyuD9QRjPH-13" target="sgFe3bj_fbjyuD9QRjPH-43">
          <mxGeometry width="50" height="50" relative="1" as="geometry">
            <mxPoint x="310" y="250" as="sourcePoint" />
            <mxPoint x="390" y="250.2" as="targetPoint" />
          </mxGeometry>
        </mxCell>
        <mxCell id="sgFe3bj_fbjyuD9QRjPH-47" value="" style="endArrow=classic;html=1;rounded=0;exitX=0.5;exitY=1;exitDx=0;exitDy=0;entryX=0.5;entryY=0;entryDx=0;entryDy=0;fillColor=#f5f5f5;strokeColor=#666666;" edge="1" parent="1" target="sgFe3bj_fbjyuD9QRjPH-4">
          <mxGeometry width="50" height="50" relative="1" as="geometry">
            <mxPoint x="259.8" y="330" as="sourcePoint" />
            <mxPoint x="259.8" y="370" as="targetPoint" />
          </mxGeometry>
        </mxCell>
        <mxCell id="sgFe3bj_fbjyuD9QRjPH-48" value="" style="endArrow=classic;html=1;rounded=0;exitX=0;exitY=0.25;exitDx=0;exitDy=0;entryX=1;entryY=0.25;entryDx=0;entryDy=0;fillColor=#f5f5f5;strokeColor=#666666;" edge="1" parent="1" source="sgFe3bj_fbjyuD9QRjPH-29" target="sgFe3bj_fbjyuD9QRjPH-13">
          <mxGeometry width="50" height="50" relative="1" as="geometry">
            <mxPoint x="567.5" y="301" as="sourcePoint" />
            <mxPoint x="489.5" y="300" as="targetPoint" />
          </mxGeometry>
        </mxCell>
        <mxCell id="sgFe3bj_fbjyuD9QRjPH-49" value="" style="endArrow=classic;html=1;rounded=0;exitX=1;exitY=0.5;exitDx=0;exitDy=0;entryX=0;entryY=0.75;entryDx=0;entryDy=0;fillColor=#f5f5f5;strokeColor=#666666;dashed=1;" edge="1" parent="1" target="sgFe3bj_fbjyuD9QRjPH-29">
          <mxGeometry width="50" height="50" relative="1" as="geometry">
            <mxPoint x="480" y="320" as="sourcePoint" />
            <mxPoint x="560" y="320.2" as="targetPoint" />
          </mxGeometry>
        </mxCell>
        <mxCell id="sgFe3bj_fbjyuD9QRjPH-50" value="" style="shape=process;whiteSpace=wrap;html=1;backgroundOutline=1;fillColor=#d5e8d4;strokeColor=#82B366;" vertex="1" parent="1">
          <mxGeometry x="445" y="210" width="80" height="40" as="geometry" />
        </mxCell>
        <mxCell id="sgFe3bj_fbjyuD9QRjPH-51" value="&lt;font color=&quot;#82b366&quot;&gt;Create Draft&lt;/font&gt;" style="text;html=1;align=center;verticalAlign=middle;whiteSpace=wrap;rounded=0;" vertex="1" parent="1">
          <mxGeometry x="455" y="215" width="60" height="30" as="geometry" />
        </mxCell>
        <mxCell id="sgFe3bj_fbjyuD9QRjPH-52" value="" style="endArrow=classic;html=1;rounded=0;exitX=0.5;exitY=0;exitDx=0;exitDy=0;fillColor=#d5e8d4;strokeColor=#82b366;entryX=0.75;entryY=1;entryDx=0;entryDy=0;" edge="1" parent="1" source="sgFe3bj_fbjyuD9QRjPH-50" target="sgFe3bj_fbjyuD9QRjPH-9">
          <mxGeometry width="50" height="50" relative="1" as="geometry">
            <mxPoint x="345" y="215" as="sourcePoint" />
            <mxPoint x="470" y="190" as="targetPoint" />
          </mxGeometry>
        </mxCell>
        <mxCell id="sgFe3bj_fbjyuD9QRjPH-59" value="&lt;font color=&quot;#82b366&quot; style=&quot;&quot;&gt;Commits since last tag&lt;/font&gt;" style="edgeLabel;html=1;align=center;verticalAlign=middle;resizable=0;points=[];labelBackgroundColor=#EEEEEE;" vertex="1" connectable="0" parent="sgFe3bj_fbjyuD9QRjPH-52">
          <mxGeometry x="-0.0276" relative="1" as="geometry">
            <mxPoint x="7" y="2" as="offset" />
          </mxGeometry>
        </mxCell>
        <mxCell id="sgFe3bj_fbjyuD9QRjPH-53" value="" style="endArrow=classic;html=1;rounded=0;exitX=0.25;exitY=0;exitDx=0;exitDy=0;entryX=0.5;entryY=1;entryDx=0;entryDy=0;fillColor=#f8cecc;strokeColor=#b85450;" edge="1" parent="1" source="sgFe3bj_fbjyuD9QRjPH-13" target="sgFe3bj_fbjyuD9QRjPH-27">
          <mxGeometry width="50" height="50" relative="1" as="geometry">
            <mxPoint x="310" y="265" as="sourcePoint" />
            <mxPoint x="335" y="240" as="targetPoint" />
          </mxGeometry>
        </mxCell>
        <mxCell id="sgFe3bj_fbjyuD9QRjPH-70" value="&lt;font color=&quot;#b85450&quot; style=&quot;&quot;&gt;No Draft update&lt;br&gt;&lt;/font&gt;" style="edgeLabel;html=1;align=center;verticalAlign=middle;resizable=0;points=[];labelBackgroundColor=#EEEEEE;" vertex="1" connectable="0" parent="sgFe3bj_fbjyuD9QRjPH-53">
          <mxGeometry x="0.0444" relative="1" as="geometry">
            <mxPoint x="-7" y="3" as="offset" />
          </mxGeometry>
        </mxCell>
        <mxCell id="sgFe3bj_fbjyuD9QRjPH-54" value="" style="endArrow=classic;html=1;rounded=0;exitX=0.5;exitY=0;exitDx=0;exitDy=0;entryX=0.25;entryY=1;entryDx=0;entryDy=0;fillColor=#f8cecc;strokeColor=#B85450;" edge="1" parent="1" source="sgFe3bj_fbjyuD9QRjPH-27" target="sgFe3bj_fbjyuD9QRjPH-9">
          <mxGeometry width="50" height="50" relative="1" as="geometry">
            <mxPoint x="345" y="215" as="sourcePoint" />
            <mxPoint x="330" y="180" as="targetPoint" />
          </mxGeometry>
        </mxCell>
        <mxCell id="sgFe3bj_fbjyuD9QRjPH-55" value="vX.Y.Z" style="swimlane;whiteSpace=wrap;html=1;fillColor=#f8cecc;strokeColor=#b85450;" vertex="1" parent="1">
          <mxGeometry x="380" y="10" width="120" height="60" as="geometry" />
        </mxCell>
        <mxCell id="sgFe3bj_fbjyuD9QRjPH-56" value="Changelog" style="text;html=1;align=center;verticalAlign=middle;whiteSpace=wrap;rounded=0;" vertex="1" parent="sgFe3bj_fbjyuD9QRjPH-55">
          <mxGeometry x="15" y="25" width="90" height="30" as="geometry" />
        </mxCell>
        <mxCell id="sgFe3bj_fbjyuD9QRjPH-57" value="" style="endArrow=classic;html=1;rounded=0;exitX=0.5;exitY=0;exitDx=0;exitDy=0;entryX=0.5;entryY=1;entryDx=0;entryDy=0;fillColor=#f8cecc;strokeColor=#b85450;" edge="1" parent="1" source="sgFe3bj_fbjyuD9QRjPH-9" target="sgFe3bj_fbjyuD9QRjPH-55">
          <mxGeometry width="50" height="50" relative="1" as="geometry">
            <mxPoint x="290" y="85" as="sourcePoint" />
            <mxPoint x="305" y="50" as="targetPoint" />
          </mxGeometry>
        </mxCell>
        <mxCell id="sgFe3bj_fbjyuD9QRjPH-71" value="" style="group;fillColor=none;" vertex="1" connectable="0" parent="1">
          <mxGeometry x="100" y="20" width="160" height="215" as="geometry" />
        </mxCell>
        <mxCell id="sgFe3bj_fbjyuD9QRjPH-68" value="" style="rounded=1;whiteSpace=wrap;html=1;fillColor=none;" vertex="1" parent="sgFe3bj_fbjyuD9QRjPH-71">
          <mxGeometry width="160" height="215" as="geometry" />
        </mxCell>
        <mxCell id="sgFe3bj_fbjyuD9QRjPH-60" value="Workflow" style="shape=process;whiteSpace=wrap;html=1;backgroundOutline=1;fillColor=#eeeeee;strokeColor=#36393d;" vertex="1" parent="sgFe3bj_fbjyuD9QRjPH-71">
          <mxGeometry x="40" y="160" width="80" height="40" as="geometry" />
        </mxCell>
        <mxCell id="sgFe3bj_fbjyuD9QRjPH-61" value="Legend" style="text;html=1;align=center;verticalAlign=middle;whiteSpace=wrap;rounded=0;" vertex="1" parent="sgFe3bj_fbjyuD9QRjPH-71">
          <mxGeometry x="50" width="60" height="30" as="geometry" />
        </mxCell>
        <mxCell id="sgFe3bj_fbjyuD9QRjPH-62" value="" style="endArrow=classic;html=1;rounded=0;fillColor=#f5f5f5;strokeColor=#666666;" edge="1" parent="sgFe3bj_fbjyuD9QRjPH-71">
          <mxGeometry width="50" height="50" relative="1" as="geometry">
            <mxPoint x="30" y="45" as="sourcePoint" />
            <mxPoint x="70" y="45" as="targetPoint" />
          </mxGeometry>
        </mxCell>
        <mxCell id="sgFe3bj_fbjyuD9QRjPH-63" value="Common Event/Step" style="text;html=1;align=center;verticalAlign=middle;whiteSpace=wrap;rounded=0;fontColor=#666666;" vertex="1" parent="sgFe3bj_fbjyuD9QRjPH-71">
          <mxGeometry x="80" y="30" width="60" height="30" as="geometry" />
        </mxCell>
        <mxCell id="sgFe3bj_fbjyuD9QRjPH-64" value="" style="endArrow=classic;html=1;rounded=0;fillColor=#f5f5f5;strokeColor=#82B366;" edge="1" parent="sgFe3bj_fbjyuD9QRjPH-71">
          <mxGeometry width="50" height="50" relative="1" as="geometry">
            <mxPoint x="30" y="90" as="sourcePoint" />
            <mxPoint x="70" y="90" as="targetPoint" />
          </mxGeometry>
        </mxCell>
        <mxCell id="sgFe3bj_fbjyuD9QRjPH-65" value="Draft Event/Step" style="text;html=1;align=center;verticalAlign=middle;whiteSpace=wrap;rounded=0;fontColor=#82B366;" vertex="1" parent="sgFe3bj_fbjyuD9QRjPH-71">
          <mxGeometry x="80" y="75" width="60" height="30" as="geometry" />
        </mxCell>
        <mxCell id="sgFe3bj_fbjyuD9QRjPH-66" value="" style="endArrow=classic;html=1;rounded=0;fillColor=#f5f5f5;strokeColor=#B85450;" edge="1" parent="sgFe3bj_fbjyuD9QRjPH-71">
          <mxGeometry width="50" height="50" relative="1" as="geometry">
            <mxPoint x="30" y="130" as="sourcePoint" />
            <mxPoint x="70" y="130" as="targetPoint" />
          </mxGeometry>
        </mxCell>
        <mxCell id="sgFe3bj_fbjyuD9QRjPH-67" value="Release Event/Step" style="text;html=1;align=center;verticalAlign=middle;whiteSpace=wrap;rounded=0;fontColor=#B85450;" vertex="1" parent="sgFe3bj_fbjyuD9QRjPH-71">
          <mxGeometry x="80" y="115" width="60" height="30" as="geometry" />
        </mxCell>
      </root>
    </mxGraphModel>
  </diagram>
</mxfile>
